<svg xmlns="http://www.w3.org/2000/svg" xmlns:xlink="http://www.w3.org/1999/xlink" viewBox="0 0 1724.53 1724.53"><defs><style>.a{fill:none;}.b{fill:url(#a);}.c,.e{fill:#fff;}.d{clip-path:url(#b);}.e{opacity:0.2;}.f{fill:url(#c);}.g{fill:url(#d);}</style><linearGradient id="a" x1="1395.85" y1="73.14" x2="-105.72" y2="2282.82" gradientUnits="userSpaceOnUse"><stop offset="0" stop-color="#1abc9c"/><stop offset="1" stop-color="#1a5daf"/></linearGradient><clipPath id="b"><circle class="a" cx="859.6" cy="862.27" r="825.34"/></clipPath><linearGradient id="c" x1="858.71" y1="46.3" x2="626.88" y2="1593" xlink:href="#a"/><linearGradient id="d" x1="1106.19" y1="83.39" x2="874.36" y2="1630.1" xlink:href="#a"/></defs><title>1.16.17</title><circle class="b" cx="859.6" cy="862.27" r="825.34"/><path class="c" d="M526.53,667.5h0l.12.47.17-.48Z"/><g class="d"><polygon class="e" points="1606.87 869.25 1348.39 1501.87 1211.61 1179.02 1336.32 874.28 1268.94 874.28 1167.36 1127.73 1066.78 874.28 1000.4 874.28 1125.12 1179.02 989.34 1501.87 729.85 869.25 599.54 562.36 733.75 239.51 992.23 872.13 1068.66 872.13 765.93 158.04 703.57 158.04 553.72 508.49 402.85 158.04 341.5 158.04 39.77 872.13 115.21 872.13 374.69 239.51 510.47 562.36 385.75 867.1 452.13 867.1 552.71 613.65 654.42 869.25 956.15 1583.34 1017.5 1583.34 1168.36 1230.32 1318.22 1583.34 1380.58 1583.34 1683.31 869.25 1606.87 869.25"/><path class="f" d="M919.9,1184.75a261.39,261.39,0,0,1-60.29,7c-144,0-266.42-109.65-275.26-272.26-1.11-20.39,10.39-73.12,14.83-92.18L376.55,732.5c-22.69,57.44-35.16,133.08-35.16,198.58,0,279,239.21,505.19,518.22,505.19a503.82,503.82,0,0,0,187.29-35.87Z"/><path class="g" d="M859.6,399a503.34,503.34,0,0,0-210.32,45.73L774.68,657.65a260.27,260.27,0,0,1,84.93-14.16c127.44,0,262.55,106.88,275.58,238.35l-362.47,1.57,565.11,239.46c29.51-64.16,39.21-139.26,39.21-214.51C1377,629.36,1138.61,399,859.6,399Z"/><path class="c" d="M526.53,667.5h0l.12.47.17-.48Z"/><path class="c" d="M919.9,1129.39a261.34,261.34,0,0,1-60.29,7c-144,0-266.42-109.65-275.26-272.26C583.24,843.76,594.73,791,599.17,772L376.55,677.14c-22.69,57.44-35.16,133.07-35.16,198.59,0,279,239.21,505.19,518.22,505.19A503.78,503.78,0,0,0,1046.89,1345Z"/><path class="c" d="M859.6,343.63a503.34,503.34,0,0,0-210.32,45.73L774.68,602.28a260.22,260.22,0,0,1,84.93-14.16c127.44,0,262.55,106.88,275.58,238.35L772.71,828l565.11,239.46C1367.33,1003.34,1377,928.25,1377,853,1377,574,1138.61,343.63,859.6,343.63Z"/></g></svg>